<svg width="24" height="24" viewBox="0 0 24 24" fill="none" xmlns="http://www.w3.org/2000/svg">
<path d="M20.6981 15.1997L16.2713 13.2188C16.0996 13.1445 15.9122 13.1142 15.726 13.1305C15.5397 13.1469 15.3604 13.2094 15.2044 13.3125C15.1919 13.3204 15.18 13.3292 15.1688 13.3388L12.8438 15.3206C12.792 15.3522 12.7333 15.3705 12.6728 15.3739C12.6123 15.3774 12.5519 15.3658 12.4969 15.3403C10.9744 14.6053 9.39845 13.0416 8.66345 11.5369C8.63745 11.4823 8.62538 11.4222 8.62832 11.3618C8.63127 11.3014 8.64914 11.2427 8.68032 11.1909L10.6678 8.8275C10.6772 8.81625 10.6856 8.80406 10.6941 8.79188C10.7968 8.63607 10.8592 8.45714 10.8755 8.27122C10.8919 8.08531 10.8618 7.89824 10.7878 7.72688L8.80314 3.3075C8.70732 3.08367 8.54148 2.89696 8.33051 2.77542C8.11954 2.65387 7.87483 2.60405 7.63314 2.63344C6.45336 2.78899 5.37054 3.36868 4.58694 4.26425C3.80334 5.15982 3.37254 6.31001 3.37501 7.5C3.37501 14.7375 9.26251 20.625 16.5 20.625C17.69 20.6275 18.8402 20.1967 19.7358 19.4131C20.6313 18.6295 21.211 17.5467 21.3666 16.3669C21.3957 16.1263 21.3464 15.8827 21.226 15.6724C21.1056 15.4621 20.9204 15.2963 20.6981 15.1997ZM20.625 16.2731C20.4926 17.2723 20.0009 18.189 19.2417 18.8519C18.4825 19.5148 17.5079 19.8785 16.5 19.875C9.67689 19.875 4.12501 14.3231 4.12501 7.5C4.12152 6.49214 4.48523 5.51751 5.14813 4.75832C5.81103 3.99914 6.72775 3.50739 7.72689 3.375C7.74187 3.37407 7.7569 3.37407 7.77189 3.375C7.84587 3.37563 7.91801 3.39813 7.97923 3.43967C8.04045 3.48121 8.08802 3.53993 8.11595 3.60844L10.095 8.02781C10.1181 8.08183 10.1282 8.14051 10.1244 8.19913C10.1207 8.25775 10.1032 8.31468 10.0734 8.36531L8.08689 10.7278C8.07751 10.74 8.06814 10.7513 8.0597 10.7644C7.95386 10.9262 7.89153 11.1126 7.87872 11.3056C7.86591 11.4985 7.90306 11.6915 7.98657 11.8659C8.80126 13.5338 10.4813 15.2016 12.1678 16.0163C12.3434 16.0992 12.5375 16.1353 12.7312 16.121C12.9249 16.1067 13.1116 16.0425 13.2731 15.9347L13.3078 15.9084L15.6356 13.9284C15.6854 13.898 15.7417 13.8799 15.7999 13.8755C15.8581 13.8711 15.9165 13.8805 15.9703 13.9031L20.3963 15.8869C20.471 15.918 20.5336 15.9724 20.5748 16.042C20.616 16.1116 20.6336 16.1927 20.625 16.2731Z" fill="#EEFFFB"/>
</svg>
