<svg width="16" height="9" viewBox="0 0 16 9" fill="none" xmlns="http://www.w3.org/2000/svg">
<path d="M15.6405 0.640522L8.14052 8.14052C8.10569 8.17539 8.06434 8.20305 8.01881 8.22192C7.97329 8.24079 7.92449 8.2505 7.87521 8.2505C7.82593 8.2505 7.77713 8.24079 7.73161 8.22192C7.68608 8.20305 7.64472 8.17539 7.6099 8.14052L0.109896 0.640522C0.0750545 0.60568 0.0474169 0.564317 0.0285609 0.518795C0.00970488 0.473273 0 0.424482 0 0.375209C0 0.325936 0.00970488 0.277145 0.0285609 0.231623C0.0474169 0.1861 0.0750545 0.144738 0.109896 0.109896C0.180261 0.0395309 0.275697 0 0.375208 0C0.424482 0 0.473272 0.0097056 0.518795 0.0285616C0.564317 0.0474176 0.60568 0.0750548 0.640521 0.109896L7.87521 7.34458L15.1099 0.109896C15.1447 0.0750548 15.1861 0.0474176 15.2316 0.0285616C15.2771 0.0097056 15.3259 0 15.3752 0C15.4245 0 15.4733 0.0097056 15.5188 0.0285616C15.5643 0.0474176 15.6057 0.0750548 15.6405 0.109896C15.6754 0.144738 15.703 0.1861 15.7219 0.231623C15.7407 0.277145 15.7504 0.325936 15.7504 0.375209C15.7504 0.424482 15.7407 0.473273 15.7219 0.518795C15.703 0.564317 15.6754 0.60568 15.6405 0.640522Z" fill="#C4FFF5"/>
</svg>
